<mxfile host="Electron" agent="Mozilla/5.0 (Macintosh; Intel Mac OS X 10_15_7) AppleWebKit/537.36 (KHTML, like Gecko) draw.io/24.7.5 Chrome/126.0.6478.183 Electron/31.3.0 Safari/537.36" version="24.7.5">
  <diagram name="ページ1" id="t94YC5nv_LQx9OQjXFBO">
    <mxGraphModel dx="954" dy="674" grid="1" gridSize="10" guides="1" tooltips="1" connect="1" arrows="1" fold="1" page="1" pageScale="1" pageWidth="1169" pageHeight="827" math="0" shadow="0">
      <root>
        <mxCell id="0" />
        <mxCell id="1" parent="0" />
        <mxCell id="b8Y9SWuDgDwBU1Piw9FO-28" value="" style="rounded=0;whiteSpace=wrap;html=1;fillColor=none;" parent="1" vertex="1">
          <mxGeometry x="200" y="80" width="760" height="440" as="geometry" />
        </mxCell>
        <mxCell id="b8Y9SWuDgDwBU1Piw9FO-1" value="Client A" style="rounded=0;whiteSpace=wrap;html=1;" parent="1" vertex="1">
          <mxGeometry x="40" y="100" width="60" height="40" as="geometry" />
        </mxCell>
        <mxCell id="b8Y9SWuDgDwBU1Piw9FO-2" value="Edge A" style="rounded=0;whiteSpace=wrap;html=1;" parent="1" vertex="1">
          <mxGeometry x="100" y="100" width="60" height="40" as="geometry" />
        </mxCell>
        <mxCell id="b8Y9SWuDgDwBU1Piw9FO-3" value="Chart.publish&lt;div&gt;service A&lt;/div&gt;" style="rounded=0;whiteSpace=wrap;html=1;" parent="1" vertex="1">
          <mxGeometry x="200" y="100" width="80" height="40" as="geometry" />
        </mxCell>
        <mxCell id="b8Y9SWuDgDwBU1Piw9FO-5" value="Chart&lt;div&gt;Router A&lt;/div&gt;" style="ellipse;whiteSpace=wrap;html=1;" parent="1" vertex="1">
          <mxGeometry x="440" y="100" width="80" height="40" as="geometry" />
        </mxCell>
        <mxCell id="b8Y9SWuDgDwBU1Piw9FO-6" value="Atlas.&lt;div&gt;updateRouteTable&lt;/div&gt;" style="ellipse;whiteSpace=wrap;html=1;" parent="1" vertex="1">
          <mxGeometry x="680" y="380" width="120" height="80" as="geometry" />
        </mxCell>
        <mxCell id="b8Y9SWuDgDwBU1Piw9FO-8" value="Atlas" style="ellipse;whiteSpace=wrap;html=1;" parent="1" vertex="1">
          <mxGeometry x="240" y="380" width="120" height="80" as="geometry" />
        </mxCell>
        <mxCell id="b8Y9SWuDgDwBU1Piw9FO-11" value="Chart&lt;div&gt;Recorder A&lt;/div&gt;" style="ellipse;whiteSpace=wrap;html=1;" parent="1" vertex="1">
          <mxGeometry x="440" y="160" width="80" height="40" as="geometry" />
        </mxCell>
        <mxCell id="b8Y9SWuDgDwBU1Piw9FO-13" value="Chart.subscribe&lt;div&gt;service A&lt;/div&gt;" style="rounded=0;whiteSpace=wrap;html=1;" parent="1" vertex="1">
          <mxGeometry x="860" y="100" width="100" height="40" as="geometry" />
        </mxCell>
        <mxCell id="b8Y9SWuDgDwBU1Piw9FO-14" value="" style="endArrow=classic;html=1;rounded=0;exitX=1;exitY=0.5;exitDx=0;exitDy=0;fillColor=#dae8fc;strokeColor=#6c8ebf;strokeWidth=4;dashed=1;entryX=0;entryY=0.5;entryDx=0;entryDy=0;" parent="1" source="b8Y9SWuDgDwBU1Piw9FO-5" target="b8Y9SWuDgDwBU1Piw9FO-35" edge="1">
          <mxGeometry width="50" height="50" relative="1" as="geometry">
            <mxPoint x="320" y="330" as="sourcePoint" />
            <mxPoint x="600" y="120" as="targetPoint" />
          </mxGeometry>
        </mxCell>
        <mxCell id="b8Y9SWuDgDwBU1Piw9FO-15" value="Client B" style="rounded=0;whiteSpace=wrap;html=1;" parent="1" vertex="1">
          <mxGeometry x="40" y="220" width="60" height="40" as="geometry" />
        </mxCell>
        <mxCell id="b8Y9SWuDgDwBU1Piw9FO-16" value="Edge B" style="rounded=0;whiteSpace=wrap;html=1;" parent="1" vertex="1">
          <mxGeometry x="100" y="220" width="60" height="40" as="geometry" />
        </mxCell>
        <mxCell id="b8Y9SWuDgDwBU1Piw9FO-17" value="&lt;div&gt;Chart.publish&lt;/div&gt;&lt;div&gt;service B&lt;/div&gt;" style="rounded=0;whiteSpace=wrap;html=1;" parent="1" vertex="1">
          <mxGeometry x="200" y="220" width="80" height="40" as="geometry" />
        </mxCell>
        <mxCell id="b8Y9SWuDgDwBU1Piw9FO-18" value="Chart&lt;div&gt;Router B&lt;/div&gt;" style="ellipse;whiteSpace=wrap;html=1;" parent="1" vertex="1">
          <mxGeometry x="440" y="220" width="80" height="40" as="geometry" />
        </mxCell>
        <mxCell id="b8Y9SWuDgDwBU1Piw9FO-20" value="Chart&lt;div&gt;Recorder B&lt;/div&gt;" style="ellipse;whiteSpace=wrap;html=1;" parent="1" vertex="1">
          <mxGeometry x="440" y="280" width="80" height="40" as="geometry" />
        </mxCell>
        <mxCell id="b8Y9SWuDgDwBU1Piw9FO-23" value="" style="endArrow=classic;html=1;rounded=0;exitX=1;exitY=1;exitDx=0;exitDy=0;entryX=0;entryY=0;entryDx=0;entryDy=0;strokeWidth=2;fillColor=#ffe6cc;strokeColor=#d79b00;" parent="1" source="b8Y9SWuDgDwBU1Piw9FO-20" target="b8Y9SWuDgDwBU1Piw9FO-6" edge="1">
          <mxGeometry width="50" height="50" relative="1" as="geometry">
            <mxPoint x="440" y="300" as="sourcePoint" />
            <mxPoint x="370" y="310" as="targetPoint" />
          </mxGeometry>
        </mxCell>
        <mxCell id="b8Y9SWuDgDwBU1Piw9FO-24" value="" style="endArrow=classic;html=1;rounded=0;exitX=1;exitY=1;exitDx=0;exitDy=0;entryX=0;entryY=0;entryDx=0;entryDy=0;fillColor=#ffe6cc;strokeColor=#d79b00;strokeWidth=2;" parent="1" source="b8Y9SWuDgDwBU1Piw9FO-11" target="b8Y9SWuDgDwBU1Piw9FO-6" edge="1">
          <mxGeometry width="50" height="50" relative="1" as="geometry">
            <mxPoint x="450" y="310" as="sourcePoint" />
            <mxPoint x="560" y="390" as="targetPoint" />
          </mxGeometry>
        </mxCell>
        <mxCell id="b8Y9SWuDgDwBU1Piw9FO-25" value="Chart.subscribe&lt;div&gt;service B&lt;/div&gt;" style="rounded=0;whiteSpace=wrap;html=1;" parent="1" vertex="1">
          <mxGeometry x="860" y="220" width="100" height="40" as="geometry" />
        </mxCell>
        <mxCell id="b8Y9SWuDgDwBU1Piw9FO-26" value="" style="endArrow=classic;html=1;rounded=0;exitX=0.5;exitY=0;exitDx=0;exitDy=0;entryX=1;entryY=1;entryDx=0;entryDy=0;fillColor=#ffe6cc;strokeColor=#d79b00;strokeWidth=2;" parent="1" source="b8Y9SWuDgDwBU1Piw9FO-6" target="b8Y9SWuDgDwBU1Piw9FO-18" edge="1">
          <mxGeometry width="50" height="50" relative="1" as="geometry">
            <mxPoint x="438" y="324" as="sourcePoint" />
            <mxPoint x="518" y="372" as="targetPoint" />
          </mxGeometry>
        </mxCell>
        <mxCell id="b8Y9SWuDgDwBU1Piw9FO-27" value="" style="endArrow=classic;html=1;rounded=0;exitX=0.5;exitY=0;exitDx=0;exitDy=0;entryX=1;entryY=1;entryDx=0;entryDy=0;fillColor=#ffe6cc;strokeColor=#d79b00;strokeWidth=2;" parent="1" source="b8Y9SWuDgDwBU1Piw9FO-6" target="b8Y9SWuDgDwBU1Piw9FO-5" edge="1">
          <mxGeometry width="50" height="50" relative="1" as="geometry">
            <mxPoint x="560" y="360" as="sourcePoint" />
            <mxPoint x="438" y="264" as="targetPoint" />
          </mxGeometry>
        </mxCell>
        <mxCell id="b8Y9SWuDgDwBU1Piw9FO-29" value="" style="endArrow=classic;html=1;rounded=0;exitX=1;exitY=0.5;exitDx=0;exitDy=0;entryX=0;entryY=0.5;entryDx=0;entryDy=0;strokeWidth=2;fillColor=#ffe6cc;strokeColor=#d79b00;" parent="1" source="b8Y9SWuDgDwBU1Piw9FO-8" target="b8Y9SWuDgDwBU1Piw9FO-6" edge="1">
          <mxGeometry width="50" height="50" relative="1" as="geometry">
            <mxPoint x="320" y="330" as="sourcePoint" />
            <mxPoint x="370" y="280" as="targetPoint" />
          </mxGeometry>
        </mxCell>
        <mxCell id="b8Y9SWuDgDwBU1Piw9FO-30" value="" style="endArrow=classic;html=1;rounded=0;exitX=1;exitY=0.5;exitDx=0;exitDy=0;entryX=0;entryY=0.5;entryDx=0;entryDy=0;fillColor=#dae8fc;strokeColor=#6c8ebf;strokeWidth=4;" parent="1" source="b8Y9SWuDgDwBU1Piw9FO-2" target="b8Y9SWuDgDwBU1Piw9FO-3" edge="1">
          <mxGeometry width="50" height="50" relative="1" as="geometry">
            <mxPoint x="360" y="330" as="sourcePoint" />
            <mxPoint x="410" y="280" as="targetPoint" />
          </mxGeometry>
        </mxCell>
        <mxCell id="b8Y9SWuDgDwBU1Piw9FO-31" value="" style="endArrow=classic;html=1;rounded=0;exitX=1;exitY=0.5;exitDx=0;exitDy=0;entryX=0;entryY=0.5;entryDx=0;entryDy=0;fillColor=#dae8fc;strokeColor=#6c8ebf;strokeWidth=4;" parent="1" source="b8Y9SWuDgDwBU1Piw9FO-16" target="b8Y9SWuDgDwBU1Piw9FO-17" edge="1">
          <mxGeometry width="50" height="50" relative="1" as="geometry">
            <mxPoint x="170" y="130" as="sourcePoint" />
            <mxPoint x="250" y="130" as="targetPoint" />
          </mxGeometry>
        </mxCell>
        <mxCell id="b8Y9SWuDgDwBU1Piw9FO-35" value="Chart&lt;div&gt;&lt;span style=&quot;background-color: initial;&quot;&gt;Subscriber A&lt;/span&gt;&lt;/div&gt;" style="ellipse;whiteSpace=wrap;html=1;" parent="1" vertex="1">
          <mxGeometry x="720" y="100" width="100" height="40" as="geometry" />
        </mxCell>
        <mxCell id="b8Y9SWuDgDwBU1Piw9FO-36" value="Chart&lt;div&gt;&lt;span style=&quot;background-color: initial;&quot;&gt;Subscriber B&lt;/span&gt;&lt;/div&gt;" style="ellipse;whiteSpace=wrap;html=1;" parent="1" vertex="1">
          <mxGeometry x="720" y="220" width="100" height="40" as="geometry" />
        </mxCell>
        <mxCell id="b8Y9SWuDgDwBU1Piw9FO-37" value="" style="endArrow=classic;html=1;rounded=0;exitX=1;exitY=0.5;exitDx=0;exitDy=0;entryX=0;entryY=0.5;entryDx=0;entryDy=0;fillColor=#dae8fc;strokeColor=#6c8ebf;strokeWidth=4;" parent="1" source="b8Y9SWuDgDwBU1Piw9FO-35" target="b8Y9SWuDgDwBU1Piw9FO-13" edge="1">
          <mxGeometry width="50" height="50" relative="1" as="geometry">
            <mxPoint x="290" y="250" as="sourcePoint" />
            <mxPoint x="330" y="250" as="targetPoint" />
          </mxGeometry>
        </mxCell>
        <mxCell id="b8Y9SWuDgDwBU1Piw9FO-38" value="" style="endArrow=classic;html=1;rounded=0;exitX=1;exitY=0.5;exitDx=0;exitDy=0;entryX=0;entryY=0.5;entryDx=0;entryDy=0;fillColor=#dae8fc;strokeColor=#6c8ebf;strokeWidth=4;" parent="1" source="b8Y9SWuDgDwBU1Piw9FO-36" target="b8Y9SWuDgDwBU1Piw9FO-25" edge="1">
          <mxGeometry width="50" height="50" relative="1" as="geometry">
            <mxPoint x="690" y="130" as="sourcePoint" />
            <mxPoint x="730" y="130" as="targetPoint" />
          </mxGeometry>
        </mxCell>
        <mxCell id="b8Y9SWuDgDwBU1Piw9FO-39" value="" style="endArrow=classic;html=1;rounded=0;fillColor=#dae8fc;strokeColor=#6c8ebf;strokeWidth=4;dashed=1;entryX=0;entryY=0.5;entryDx=0;entryDy=0;exitX=1;exitY=0.5;exitDx=0;exitDy=0;" parent="1" source="b8Y9SWuDgDwBU1Piw9FO-5" target="b8Y9SWuDgDwBU1Piw9FO-36" edge="1">
          <mxGeometry width="50" height="50" relative="1" as="geometry">
            <mxPoint x="400" y="120" as="sourcePoint" />
            <mxPoint x="610" y="130" as="targetPoint" />
          </mxGeometry>
        </mxCell>
        <mxCell id="b8Y9SWuDgDwBU1Piw9FO-50" value="&lt;b&gt;① spawn a child actor regularly&lt;/b&gt;&lt;div style=&quot;font-size: 6px;&quot;&gt;&lt;b&gt;&lt;br&gt;&lt;/b&gt;&lt;div style=&quot;line-height: 160%; font-size: 12px;&quot;&gt;&lt;div style=&quot;line-height: 120%;&quot;&gt;&lt;span style=&quot;background-color: initial;&quot;&gt;- router references keyed by Edge ID&lt;/span&gt;&lt;div style=&quot;line-height: 120%;&quot;&gt;- recorder references&lt;span style=&quot;background-color: initial;&quot;&gt;&amp;nbsp;&lt;/span&gt;&lt;span style=&quot;background-color: initial;&quot;&gt;keyed by Edge ID&lt;/span&gt;&lt;span style=&quot;background-color: initial;&quot;&gt;&amp;nbsp;&lt;/span&gt;&lt;/div&gt;&lt;div style=&quot;line-height: 120%;&quot;&gt;- subscriber references&amp;nbsp;&lt;span style=&quot;background-color: initial;&quot;&gt;&amp;nbsp;&lt;/span&gt;&lt;span style=&quot;background-color: initial;&quot;&gt;keyed by Edge ID&lt;/span&gt;&lt;/div&gt;&lt;/div&gt;&lt;/div&gt;&lt;/div&gt;" style="text;html=1;align=left;verticalAlign=middle;whiteSpace=wrap;rounded=0;" parent="1" vertex="1">
          <mxGeometry x="400" y="450" width="240" height="30" as="geometry" />
        </mxCell>
        <mxCell id="b8Y9SWuDgDwBU1Piw9FO-52" value="&lt;b style=&quot;&quot;&gt;③ create route table&lt;/b&gt;" style="text;html=1;align=left;verticalAlign=middle;whiteSpace=wrap;rounded=0;" parent="1" vertex="1">
          <mxGeometry x="810" y="400" width="140" height="40" as="geometry" />
        </mxCell>
        <mxCell id="b8Y9SWuDgDwBU1Piw9FO-55" value="" style="endArrow=classic;html=1;rounded=0;exitX=0.5;exitY=0;exitDx=0;exitDy=0;entryX=0;entryY=1;entryDx=0;entryDy=0;strokeWidth=2;fillColor=#ffe6cc;strokeColor=#d79b00;movable=1;resizable=1;rotatable=1;deletable=1;editable=1;locked=0;connectable=1;" parent="1" source="b8Y9SWuDgDwBU1Piw9FO-8" target="b8Y9SWuDgDwBU1Piw9FO-5" edge="1">
          <mxGeometry width="50" height="50" relative="1" as="geometry">
            <mxPoint x="410" y="390" as="sourcePoint" />
            <mxPoint x="610" y="390" as="targetPoint" />
          </mxGeometry>
        </mxCell>
        <mxCell id="b8Y9SWuDgDwBU1Piw9FO-57" value="" style="endArrow=classic;html=1;rounded=0;entryX=0;entryY=1;entryDx=0;entryDy=0;strokeWidth=2;fillColor=#ffe6cc;strokeColor=#d79b00;exitX=0.5;exitY=0;exitDx=0;exitDy=0;" parent="1" source="b8Y9SWuDgDwBU1Piw9FO-8" target="b8Y9SWuDgDwBU1Piw9FO-18" edge="1">
          <mxGeometry width="50" height="50" relative="1" as="geometry">
            <mxPoint x="260" y="390" as="sourcePoint" />
            <mxPoint x="342" y="144" as="targetPoint" />
          </mxGeometry>
        </mxCell>
        <mxCell id="b8Y9SWuDgDwBU1Piw9FO-21" value="" style="endArrow=classic;html=1;rounded=0;exitX=1;exitY=0.5;exitDx=0;exitDy=0;entryX=0;entryY=0.5;entryDx=0;entryDy=0;fillColor=#dae8fc;strokeColor=#6c8ebf;strokeWidth=4;" parent="1" source="b8Y9SWuDgDwBU1Piw9FO-17" target="b8Y9SWuDgDwBU1Piw9FO-20" edge="1">
          <mxGeometry width="50" height="50" relative="1" as="geometry">
            <mxPoint x="290" y="250" as="sourcePoint" />
            <mxPoint x="370" y="250" as="targetPoint" />
          </mxGeometry>
        </mxCell>
        <mxCell id="b8Y9SWuDgDwBU1Piw9FO-19" value="" style="endArrow=classic;html=1;rounded=0;exitX=1;exitY=0.5;exitDx=0;exitDy=0;entryX=0;entryY=0.5;entryDx=0;entryDy=0;fillColor=#dae8fc;strokeColor=#6c8ebf;strokeWidth=4;" parent="1" source="b8Y9SWuDgDwBU1Piw9FO-17" target="b8Y9SWuDgDwBU1Piw9FO-18" edge="1">
          <mxGeometry width="50" height="50" relative="1" as="geometry">
            <mxPoint x="160" y="450" as="sourcePoint" />
            <mxPoint x="210" y="400" as="targetPoint" />
          </mxGeometry>
        </mxCell>
        <mxCell id="b8Y9SWuDgDwBU1Piw9FO-12" value="" style="endArrow=classic;html=1;rounded=0;exitX=1;exitY=0.5;exitDx=0;exitDy=0;entryX=0;entryY=0.5;entryDx=0;entryDy=0;fillColor=#dae8fc;strokeColor=#6c8ebf;strokeWidth=4;" parent="1" source="b8Y9SWuDgDwBU1Piw9FO-3" target="b8Y9SWuDgDwBU1Piw9FO-11" edge="1">
          <mxGeometry width="50" height="50" relative="1" as="geometry">
            <mxPoint x="290" y="130" as="sourcePoint" />
            <mxPoint x="370" y="130" as="targetPoint" />
          </mxGeometry>
        </mxCell>
        <mxCell id="b8Y9SWuDgDwBU1Piw9FO-9" value="" style="endArrow=classic;html=1;rounded=0;exitX=1;exitY=0.5;exitDx=0;exitDy=0;entryX=0;entryY=0.5;entryDx=0;entryDy=0;fillColor=#dae8fc;strokeColor=#6c8ebf;strokeWidth=4;" parent="1" source="b8Y9SWuDgDwBU1Piw9FO-3" target="b8Y9SWuDgDwBU1Piw9FO-5" edge="1">
          <mxGeometry width="50" height="50" relative="1" as="geometry">
            <mxPoint x="160" y="330" as="sourcePoint" />
            <mxPoint x="210" y="280" as="targetPoint" />
          </mxGeometry>
        </mxCell>
        <mxCell id="b8Y9SWuDgDwBU1Piw9FO-59" value="&lt;b&gt;⓪ Spawn a router&lt;/b&gt;&lt;div style=&quot;font-size: 6px;&quot;&gt;&lt;b&gt;&lt;br&gt;&lt;/b&gt;&lt;div style=&quot;line-height: 160%; font-size: 12px;&quot;&gt;&lt;div style=&quot;line-height: 120%;&quot;&gt;&lt;span style=&quot;background-color: initial;&quot;&gt;- initial route table&lt;br&gt;&lt;/span&gt;&lt;/div&gt;&lt;/div&gt;&lt;/div&gt;" style="text;html=1;align=left;verticalAlign=middle;whiteSpace=wrap;rounded=0;" parent="1" vertex="1">
          <mxGeometry x="220" y="300" width="110" height="40" as="geometry" />
        </mxCell>
        <mxCell id="b8Y9SWuDgDwBU1Piw9FO-61" value="&lt;b&gt;② collect records&lt;/b&gt;&lt;div style=&quot;font-size: 6px;&quot;&gt;&lt;b&gt;&lt;br&gt;&lt;/b&gt;&lt;div style=&quot;line-height: 160%; font-size: 12px;&quot;&gt;&lt;div style=&quot;line-height: 120%;&quot;&gt;&lt;span style=&quot;background-color: initial;&quot;&gt;- partition indexes where agents exist&lt;/span&gt;&lt;/div&gt;&lt;/div&gt;&lt;/div&gt;" style="text;html=1;align=left;verticalAlign=middle;whiteSpace=wrap;rounded=0;" parent="1" vertex="1">
          <mxGeometry x="420" y="350" width="230" height="30" as="geometry" />
        </mxCell>
        <mxCell id="b8Y9SWuDgDwBU1Piw9FO-64" value="&lt;b&gt;④ update route tables&lt;/b&gt;&lt;div style=&quot;font-size: 6px;&quot;&gt;&lt;b&gt;&lt;br&gt;&lt;/b&gt;&lt;div style=&quot;line-height: 160%; font-size: 12px;&quot;&gt;&lt;div style=&quot;line-height: 120%;&quot;&gt;&lt;span style=&quot;background-color: initial;&quot;&gt;- route table from partition index&lt;/span&gt;&lt;/div&gt;&lt;div style=&quot;line-height: 120%;&quot;&gt;&lt;span style=&quot;background-color: initial;&quot;&gt;&amp;nbsp; to subscriber reference&lt;/span&gt;&lt;/div&gt;&lt;/div&gt;&lt;/div&gt;" style="text;html=1;align=left;verticalAlign=middle;whiteSpace=wrap;rounded=0;" parent="1" vertex="1">
          <mxGeometry x="680" y="280" width="230" height="30" as="geometry" />
        </mxCell>
        <mxCell id="b8Y9SWuDgDwBU1Piw9FO-65" value="Edge A" style="rounded=0;whiteSpace=wrap;html=1;" parent="1" vertex="1">
          <mxGeometry x="1000" y="100" width="60" height="40" as="geometry" />
        </mxCell>
        <mxCell id="b8Y9SWuDgDwBU1Piw9FO-66" value="Client A" style="rounded=0;whiteSpace=wrap;html=1;" parent="1" vertex="1">
          <mxGeometry x="1060" y="100" width="60" height="40" as="geometry" />
        </mxCell>
        <mxCell id="b8Y9SWuDgDwBU1Piw9FO-67" value="Edge B" style="rounded=0;whiteSpace=wrap;html=1;" parent="1" vertex="1">
          <mxGeometry x="1000" y="220" width="60" height="40" as="geometry" />
        </mxCell>
        <mxCell id="b8Y9SWuDgDwBU1Piw9FO-68" value="Client B" style="rounded=0;whiteSpace=wrap;html=1;" parent="1" vertex="1">
          <mxGeometry x="1060" y="220" width="60" height="40" as="geometry" />
        </mxCell>
        <mxCell id="b8Y9SWuDgDwBU1Piw9FO-69" value="" style="endArrow=classic;html=1;rounded=0;exitX=1;exitY=0.5;exitDx=0;exitDy=0;entryX=0;entryY=0.5;entryDx=0;entryDy=0;fillColor=#dae8fc;strokeColor=#6c8ebf;strokeWidth=4;" parent="1" source="b8Y9SWuDgDwBU1Piw9FO-13" target="b8Y9SWuDgDwBU1Piw9FO-65" edge="1">
          <mxGeometry width="50" height="50" relative="1" as="geometry">
            <mxPoint x="820" y="130" as="sourcePoint" />
            <mxPoint x="870" y="130" as="targetPoint" />
          </mxGeometry>
        </mxCell>
        <mxCell id="b8Y9SWuDgDwBU1Piw9FO-70" value="" style="endArrow=classic;html=1;rounded=0;exitX=1;exitY=0.5;exitDx=0;exitDy=0;entryX=0;entryY=0.5;entryDx=0;entryDy=0;fillColor=#dae8fc;strokeColor=#6c8ebf;strokeWidth=4;" parent="1" source="b8Y9SWuDgDwBU1Piw9FO-25" target="b8Y9SWuDgDwBU1Piw9FO-67" edge="1">
          <mxGeometry width="50" height="50" relative="1" as="geometry">
            <mxPoint x="970" y="130" as="sourcePoint" />
            <mxPoint x="1010" y="130" as="targetPoint" />
          </mxGeometry>
        </mxCell>
        <mxCell id="b8Y9SWuDgDwBU1Piw9FO-22" value="" style="endArrow=classic;html=1;rounded=0;exitX=1;exitY=0.5;exitDx=0;exitDy=0;entryX=0;entryY=0.5;entryDx=0;entryDy=0;fillColor=#dae8fc;strokeColor=#6c8ebf;strokeWidth=4;dashed=1;" parent="1" source="b8Y9SWuDgDwBU1Piw9FO-18" target="b8Y9SWuDgDwBU1Piw9FO-36" edge="1">
          <mxGeometry width="50" height="50" relative="1" as="geometry">
            <mxPoint x="320" y="450" as="sourcePoint" />
            <mxPoint x="600" y="240" as="targetPoint" />
          </mxGeometry>
        </mxCell>
        <mxCell id="b8Y9SWuDgDwBU1Piw9FO-40" value="" style="endArrow=classic;html=1;rounded=0;fillColor=#dae8fc;strokeColor=#6c8ebf;strokeWidth=4;dashed=1;entryX=0;entryY=0.5;entryDx=0;entryDy=0;exitX=1;exitY=0.5;exitDx=0;exitDy=0;" parent="1" source="b8Y9SWuDgDwBU1Piw9FO-18" target="b8Y9SWuDgDwBU1Piw9FO-35" edge="1">
          <mxGeometry width="50" height="50" relative="1" as="geometry">
            <mxPoint x="400" y="240" as="sourcePoint" />
            <mxPoint x="610" y="250" as="targetPoint" />
          </mxGeometry>
        </mxCell>
        <mxCell id="b8Y9SWuDgDwBU1Piw9FO-72" value="&lt;b style=&quot;&quot;&gt;⑤ terminate a child actor&lt;/b&gt;" style="text;html=1;align=left;verticalAlign=middle;whiteSpace=wrap;rounded=0;" parent="1" vertex="1">
          <mxGeometry x="800" y="440" width="160" height="40" as="geometry" />
        </mxCell>
        <mxCell id="b8Y9SWuDgDwBU1Piw9FO-73" value="&lt;b&gt;&lt;font style=&quot;font-size: 24px;&quot;&gt;ArkTwin Center Culling Algorithm&lt;/font&gt;&lt;/b&gt;" style="text;html=1;align=center;verticalAlign=middle;whiteSpace=wrap;rounded=0;" parent="1" vertex="1">
          <mxGeometry x="200" y="20" width="760" height="40" as="geometry" />
        </mxCell>
        <mxCell id="b8Y9SWuDgDwBU1Piw9FO-74" value="" style="rounded=0;whiteSpace=wrap;html=1;fillColor=none;" parent="1" vertex="1">
          <mxGeometry x="60" y="760" width="40" height="40" as="geometry" />
        </mxCell>
        <mxCell id="b8Y9SWuDgDwBU1Piw9FO-75" value="" style="rounded=0;whiteSpace=wrap;html=1;fillColor=none;" parent="1" vertex="1">
          <mxGeometry x="60" y="720" width="40" height="40" as="geometry" />
        </mxCell>
        <mxCell id="b8Y9SWuDgDwBU1Piw9FO-76" value="" style="rounded=0;whiteSpace=wrap;html=1;fillColor=none;" parent="1" vertex="1">
          <mxGeometry x="60" y="680" width="40" height="40" as="geometry" />
        </mxCell>
        <mxCell id="b8Y9SWuDgDwBU1Piw9FO-77" value="" style="rounded=0;whiteSpace=wrap;html=1;fillColor=none;" parent="1" vertex="1">
          <mxGeometry x="60" y="640" width="40" height="40" as="geometry" />
        </mxCell>
        <mxCell id="b8Y9SWuDgDwBU1Piw9FO-78" value="" style="rounded=0;whiteSpace=wrap;html=1;fillColor=#fff2cc;strokeColor=#330000;" parent="1" vertex="1">
          <mxGeometry x="100" y="760" width="40" height="40" as="geometry" />
        </mxCell>
        <mxCell id="b8Y9SWuDgDwBU1Piw9FO-79" value="" style="rounded=0;whiteSpace=wrap;html=1;fillColor=#fff2cc;strokeColor=#330000;" parent="1" vertex="1">
          <mxGeometry x="100" y="720" width="40" height="40" as="geometry" />
        </mxCell>
        <mxCell id="b8Y9SWuDgDwBU1Piw9FO-80" value="" style="rounded=0;whiteSpace=wrap;html=1;fillColor=#fff2cc;strokeColor=#330000;" parent="1" vertex="1">
          <mxGeometry x="100" y="680" width="40" height="40" as="geometry" />
        </mxCell>
        <mxCell id="b8Y9SWuDgDwBU1Piw9FO-81" value="" style="rounded=0;whiteSpace=wrap;html=1;fillColor=none;" parent="1" vertex="1">
          <mxGeometry x="100" y="640" width="40" height="40" as="geometry" />
        </mxCell>
        <mxCell id="b8Y9SWuDgDwBU1Piw9FO-82" value="" style="rounded=0;whiteSpace=wrap;html=1;fillColor=#fff2cc;strokeColor=#330000;" parent="1" vertex="1">
          <mxGeometry x="140" y="760" width="40" height="40" as="geometry" />
        </mxCell>
        <mxCell id="b8Y9SWuDgDwBU1Piw9FO-83" value="" style="rounded=0;whiteSpace=wrap;html=1;fillColor=#f8cecc;strokeColor=#330000;" parent="1" vertex="1">
          <mxGeometry x="140" y="720" width="40" height="40" as="geometry" />
        </mxCell>
        <mxCell id="b8Y9SWuDgDwBU1Piw9FO-84" value="" style="rounded=0;whiteSpace=wrap;html=1;fillColor=#fff2cc;strokeColor=#330000;" parent="1" vertex="1">
          <mxGeometry x="140" y="680" width="40" height="40" as="geometry" />
        </mxCell>
        <mxCell id="b8Y9SWuDgDwBU1Piw9FO-85" value="" style="rounded=0;whiteSpace=wrap;html=1;fillColor=none;" parent="1" vertex="1">
          <mxGeometry x="140" y="640" width="40" height="40" as="geometry" />
        </mxCell>
        <mxCell id="b8Y9SWuDgDwBU1Piw9FO-86" value="" style="rounded=0;whiteSpace=wrap;html=1;fillColor=#fff2cc;strokeColor=#330000;" parent="1" vertex="1">
          <mxGeometry x="180" y="760" width="40" height="40" as="geometry" />
        </mxCell>
        <mxCell id="b8Y9SWuDgDwBU1Piw9FO-87" value="" style="rounded=0;whiteSpace=wrap;html=1;fillColor=#f8cecc;strokeColor=#330000;" parent="1" vertex="1">
          <mxGeometry x="180" y="720" width="40" height="40" as="geometry" />
        </mxCell>
        <mxCell id="b8Y9SWuDgDwBU1Piw9FO-88" value="" style="rounded=0;whiteSpace=wrap;html=1;fillColor=#fff2cc;strokeColor=#330000;" parent="1" vertex="1">
          <mxGeometry x="180" y="680" width="40" height="40" as="geometry" />
        </mxCell>
        <mxCell id="b8Y9SWuDgDwBU1Piw9FO-89" value="" style="rounded=0;whiteSpace=wrap;html=1;fillColor=none;" parent="1" vertex="1">
          <mxGeometry x="180" y="640" width="40" height="40" as="geometry" />
        </mxCell>
        <mxCell id="b8Y9SWuDgDwBU1Piw9FO-90" value="" style="rounded=0;whiteSpace=wrap;html=1;fillColor=#fff2cc;strokeColor=#330000;" parent="1" vertex="1">
          <mxGeometry x="220" y="760" width="40" height="40" as="geometry" />
        </mxCell>
        <mxCell id="b8Y9SWuDgDwBU1Piw9FO-91" value="" style="rounded=0;whiteSpace=wrap;html=1;fillColor=#fff2cc;strokeColor=#330000;" parent="1" vertex="1">
          <mxGeometry x="220" y="720" width="40" height="40" as="geometry" />
        </mxCell>
        <mxCell id="b8Y9SWuDgDwBU1Piw9FO-92" value="" style="rounded=0;whiteSpace=wrap;html=1;fillColor=#fff2cc;strokeColor=#330000;" parent="1" vertex="1">
          <mxGeometry x="220" y="680" width="40" height="40" as="geometry" />
        </mxCell>
        <mxCell id="b8Y9SWuDgDwBU1Piw9FO-93" value="" style="rounded=0;whiteSpace=wrap;html=1;fillColor=none;" parent="1" vertex="1">
          <mxGeometry x="220" y="640" width="40" height="40" as="geometry" />
        </mxCell>
        <mxCell id="b8Y9SWuDgDwBU1Piw9FO-94" value="&lt;b style=&quot;font-size: 18px;&quot;&gt;&lt;font style=&quot;font-size: 18px;&quot;&gt;Edge A&lt;/font&gt;&lt;/b&gt;" style="text;html=1;align=center;verticalAlign=middle;whiteSpace=wrap;rounded=0;" parent="1" vertex="1">
          <mxGeometry x="60" y="580" width="200" height="40" as="geometry" />
        </mxCell>
        <mxCell id="b8Y9SWuDgDwBU1Piw9FO-95" value="&lt;b style=&quot;&quot;&gt;&lt;font style=&quot;font-size: 12px;&quot;&gt;1&lt;/font&gt;&lt;/b&gt;" style="text;html=1;align=center;verticalAlign=middle;whiteSpace=wrap;rounded=0;" parent="1" vertex="1">
          <mxGeometry x="70" y="800" width="20" height="20" as="geometry" />
        </mxCell>
        <mxCell id="b8Y9SWuDgDwBU1Piw9FO-96" value="&lt;b style=&quot;&quot;&gt;&lt;font style=&quot;font-size: 12px;&quot;&gt;2&lt;/font&gt;&lt;/b&gt;" style="text;html=1;align=center;verticalAlign=middle;whiteSpace=wrap;rounded=0;" parent="1" vertex="1">
          <mxGeometry x="110" y="800" width="20" height="20" as="geometry" />
        </mxCell>
        <mxCell id="b8Y9SWuDgDwBU1Piw9FO-97" value="&lt;b style=&quot;&quot;&gt;&lt;font style=&quot;font-size: 12px;&quot;&gt;3&lt;/font&gt;&lt;/b&gt;" style="text;html=1;align=center;verticalAlign=middle;whiteSpace=wrap;rounded=0;" parent="1" vertex="1">
          <mxGeometry x="150" y="800" width="20" height="20" as="geometry" />
        </mxCell>
        <mxCell id="b8Y9SWuDgDwBU1Piw9FO-98" value="&lt;b style=&quot;&quot;&gt;&lt;font style=&quot;font-size: 12px;&quot;&gt;4&lt;/font&gt;&lt;/b&gt;" style="text;html=1;align=center;verticalAlign=middle;whiteSpace=wrap;rounded=0;" parent="1" vertex="1">
          <mxGeometry x="190" y="800" width="20" height="20" as="geometry" />
        </mxCell>
        <mxCell id="b8Y9SWuDgDwBU1Piw9FO-99" value="&lt;b style=&quot;&quot;&gt;&lt;font style=&quot;font-size: 12px;&quot;&gt;5&lt;/font&gt;&lt;/b&gt;" style="text;html=1;align=center;verticalAlign=middle;whiteSpace=wrap;rounded=0;" parent="1" vertex="1">
          <mxGeometry x="230" y="800" width="20" height="20" as="geometry" />
        </mxCell>
        <mxCell id="b8Y9SWuDgDwBU1Piw9FO-100" value="&lt;b style=&quot;&quot;&gt;&lt;font style=&quot;font-size: 12px;&quot;&gt;1&lt;/font&gt;&lt;/b&gt;" style="text;html=1;align=center;verticalAlign=middle;whiteSpace=wrap;rounded=0;" parent="1" vertex="1">
          <mxGeometry x="40" y="770" width="20" height="20" as="geometry" />
        </mxCell>
        <mxCell id="b8Y9SWuDgDwBU1Piw9FO-101" value="&lt;b style=&quot;&quot;&gt;&lt;font style=&quot;font-size: 12px;&quot;&gt;2&lt;/font&gt;&lt;/b&gt;" style="text;html=1;align=center;verticalAlign=middle;whiteSpace=wrap;rounded=0;" parent="1" vertex="1">
          <mxGeometry x="40" y="730" width="20" height="20" as="geometry" />
        </mxCell>
        <mxCell id="b8Y9SWuDgDwBU1Piw9FO-103" value="&lt;b style=&quot;&quot;&gt;&lt;font style=&quot;font-size: 12px;&quot;&gt;3&lt;/font&gt;&lt;/b&gt;" style="text;html=1;align=center;verticalAlign=middle;whiteSpace=wrap;rounded=0;" parent="1" vertex="1">
          <mxGeometry x="40" y="690" width="20" height="20" as="geometry" />
        </mxCell>
        <mxCell id="b8Y9SWuDgDwBU1Piw9FO-104" value="&lt;b style=&quot;&quot;&gt;&lt;font style=&quot;font-size: 12px;&quot;&gt;4&lt;/font&gt;&lt;/b&gt;" style="text;html=1;align=center;verticalAlign=middle;whiteSpace=wrap;rounded=0;" parent="1" vertex="1">
          <mxGeometry x="40" y="650" width="20" height="20" as="geometry" />
        </mxCell>
        <mxCell id="b8Y9SWuDgDwBU1Piw9FO-136" value="&lt;div&gt;&lt;font style=&quot;font-size: 12px;&quot;&gt;Red dots mean agents.&lt;br&gt;&lt;/font&gt;&lt;/div&gt;&lt;font style=&quot;font-size: 12px;&quot;&gt;Red area mean partitions where agents exist.&amp;nbsp;&lt;/font&gt;&lt;div style=&quot;line-height: 120%;&quot;&gt;&lt;font style=&quot;font-size: 12px;&quot;&gt;Red area and yellow area mean partitions where Edge should recognize other client agents.&amp;nbsp;&lt;/font&gt;&lt;/div&gt;" style="text;html=1;align=left;verticalAlign=middle;whiteSpace=wrap;rounded=0;" parent="1" vertex="1">
          <mxGeometry x="540" y="680" width="280" height="80" as="geometry" />
        </mxCell>
        <mxCell id="b8Y9SWuDgDwBU1Piw9FO-137" value="" style="rounded=0;whiteSpace=wrap;html=1;fillColor=none;" parent="1" vertex="1">
          <mxGeometry x="320" y="760" width="40" height="40" as="geometry" />
        </mxCell>
        <mxCell id="b8Y9SWuDgDwBU1Piw9FO-141" value="" style="rounded=0;whiteSpace=wrap;html=1;fillColor=#fff2cc;strokeColor=#330000;" parent="1" vertex="1">
          <mxGeometry x="360" y="760" width="40" height="40" as="geometry" />
        </mxCell>
        <mxCell id="b8Y9SWuDgDwBU1Piw9FO-142" value="" style="rounded=0;whiteSpace=wrap;html=1;fillColor=#fff2cc;strokeColor=#330000;" parent="1" vertex="1">
          <mxGeometry x="360" y="720" width="40" height="40" as="geometry" />
        </mxCell>
        <mxCell id="b8Y9SWuDgDwBU1Piw9FO-143" value="" style="rounded=0;whiteSpace=wrap;html=1;fillColor=#fff2cc;strokeColor=#330000;" parent="1" vertex="1">
          <mxGeometry x="320" y="680" width="40" height="40" as="geometry" />
        </mxCell>
        <mxCell id="b8Y9SWuDgDwBU1Piw9FO-144" value="" style="rounded=0;whiteSpace=wrap;html=1;fillColor=none;" parent="1" vertex="1">
          <mxGeometry x="480" y="680" width="40" height="40" as="geometry" />
        </mxCell>
        <mxCell id="b8Y9SWuDgDwBU1Piw9FO-145" value="" style="rounded=0;whiteSpace=wrap;html=1;fillColor=#fff2cc;strokeColor=#330000;" parent="1" vertex="1">
          <mxGeometry x="400" y="760" width="40" height="40" as="geometry" />
        </mxCell>
        <mxCell id="b8Y9SWuDgDwBU1Piw9FO-146" value="" style="rounded=0;whiteSpace=wrap;html=1;fillColor=#f8cecc;strokeColor=#330000;" parent="1" vertex="1">
          <mxGeometry x="400" y="720" width="40" height="40" as="geometry" />
        </mxCell>
        <mxCell id="b8Y9SWuDgDwBU1Piw9FO-147" value="" style="rounded=0;whiteSpace=wrap;html=1;fillColor=#fff2cc;strokeColor=#330000;" parent="1" vertex="1">
          <mxGeometry x="440" y="720" width="40" height="40" as="geometry" />
        </mxCell>
        <mxCell id="b8Y9SWuDgDwBU1Piw9FO-148" value="" style="rounded=0;whiteSpace=wrap;html=1;fillColor=none;" parent="1" vertex="1">
          <mxGeometry x="480" y="720" width="40" height="40" as="geometry" />
        </mxCell>
        <mxCell id="b8Y9SWuDgDwBU1Piw9FO-149" value="" style="rounded=0;whiteSpace=wrap;html=1;fillColor=#fff2cc;strokeColor=#330000;" parent="1" vertex="1">
          <mxGeometry x="440" y="760" width="40" height="40" as="geometry" />
        </mxCell>
        <mxCell id="b8Y9SWuDgDwBU1Piw9FO-150" value="" style="rounded=0;whiteSpace=wrap;html=1;fillColor=#f8cecc;strokeColor=#330000;" parent="1" vertex="1">
          <mxGeometry x="400" y="680" width="40" height="40" as="geometry" />
        </mxCell>
        <mxCell id="b8Y9SWuDgDwBU1Piw9FO-151" value="" style="rounded=0;whiteSpace=wrap;html=1;fillColor=#fff2cc;strokeColor=#330000;" parent="1" vertex="1">
          <mxGeometry x="440" y="680" width="40" height="40" as="geometry" />
        </mxCell>
        <mxCell id="b8Y9SWuDgDwBU1Piw9FO-152" value="" style="rounded=0;whiteSpace=wrap;html=1;fillColor=none;" parent="1" vertex="1">
          <mxGeometry x="480" y="760" width="40" height="40" as="geometry" />
        </mxCell>
        <mxCell id="b8Y9SWuDgDwBU1Piw9FO-153" value="" style="rounded=0;whiteSpace=wrap;html=1;fillColor=#fff2cc;strokeColor=#330000;" parent="1" vertex="1">
          <mxGeometry x="440" y="640" width="40" height="40" as="geometry" />
        </mxCell>
        <mxCell id="b8Y9SWuDgDwBU1Piw9FO-154" value="" style="rounded=0;whiteSpace=wrap;html=1;fillColor=#fff2cc;strokeColor=#330000;" parent="1" vertex="1">
          <mxGeometry x="400" y="640" width="40" height="40" as="geometry" />
        </mxCell>
        <mxCell id="b8Y9SWuDgDwBU1Piw9FO-155" value="" style="rounded=0;whiteSpace=wrap;html=1;fillColor=#fff2cc;strokeColor=#330000;" parent="1" vertex="1">
          <mxGeometry x="360" y="640" width="40" height="40" as="geometry" />
        </mxCell>
        <mxCell id="b8Y9SWuDgDwBU1Piw9FO-156" value="" style="rounded=0;whiteSpace=wrap;html=1;fillColor=none;" parent="1" vertex="1">
          <mxGeometry x="480" y="640" width="40" height="40" as="geometry" />
        </mxCell>
        <mxCell id="b8Y9SWuDgDwBU1Piw9FO-157" value="&lt;b style=&quot;font-size: 18px;&quot;&gt;&lt;font style=&quot;font-size: 18px;&quot;&gt;Edge B&lt;/font&gt;&lt;/b&gt;" style="text;html=1;align=center;verticalAlign=middle;whiteSpace=wrap;rounded=0;" parent="1" vertex="1">
          <mxGeometry x="320" y="580" width="200" height="40" as="geometry" />
        </mxCell>
        <mxCell id="b8Y9SWuDgDwBU1Piw9FO-158" value="&lt;b style=&quot;&quot;&gt;&lt;font style=&quot;font-size: 12px;&quot;&gt;1&lt;/font&gt;&lt;/b&gt;" style="text;html=1;align=center;verticalAlign=middle;whiteSpace=wrap;rounded=0;" parent="1" vertex="1">
          <mxGeometry x="330" y="800" width="20" height="20" as="geometry" />
        </mxCell>
        <mxCell id="b8Y9SWuDgDwBU1Piw9FO-159" value="&lt;b style=&quot;&quot;&gt;&lt;font style=&quot;font-size: 12px;&quot;&gt;2&lt;/font&gt;&lt;/b&gt;" style="text;html=1;align=center;verticalAlign=middle;whiteSpace=wrap;rounded=0;" parent="1" vertex="1">
          <mxGeometry x="370" y="800" width="20" height="20" as="geometry" />
        </mxCell>
        <mxCell id="b8Y9SWuDgDwBU1Piw9FO-160" value="&lt;b style=&quot;&quot;&gt;&lt;font style=&quot;font-size: 12px;&quot;&gt;3&lt;/font&gt;&lt;/b&gt;" style="text;html=1;align=center;verticalAlign=middle;whiteSpace=wrap;rounded=0;" parent="1" vertex="1">
          <mxGeometry x="410" y="800" width="20" height="20" as="geometry" />
        </mxCell>
        <mxCell id="b8Y9SWuDgDwBU1Piw9FO-161" value="&lt;b style=&quot;&quot;&gt;&lt;font style=&quot;font-size: 12px;&quot;&gt;4&lt;/font&gt;&lt;/b&gt;" style="text;html=1;align=center;verticalAlign=middle;whiteSpace=wrap;rounded=0;" parent="1" vertex="1">
          <mxGeometry x="450" y="800" width="20" height="20" as="geometry" />
        </mxCell>
        <mxCell id="b8Y9SWuDgDwBU1Piw9FO-162" value="&lt;b style=&quot;&quot;&gt;&lt;font style=&quot;font-size: 12px;&quot;&gt;5&lt;/font&gt;&lt;/b&gt;" style="text;html=1;align=center;verticalAlign=middle;whiteSpace=wrap;rounded=0;" parent="1" vertex="1">
          <mxGeometry x="490" y="800" width="20" height="20" as="geometry" />
        </mxCell>
        <mxCell id="b8Y9SWuDgDwBU1Piw9FO-163" value="&lt;b style=&quot;&quot;&gt;&lt;font style=&quot;font-size: 12px;&quot;&gt;1&lt;/font&gt;&lt;/b&gt;" style="text;html=1;align=center;verticalAlign=middle;whiteSpace=wrap;rounded=0;" parent="1" vertex="1">
          <mxGeometry x="300" y="770" width="20" height="20" as="geometry" />
        </mxCell>
        <mxCell id="b8Y9SWuDgDwBU1Piw9FO-164" value="&lt;b style=&quot;&quot;&gt;&lt;font style=&quot;font-size: 12px;&quot;&gt;2&lt;/font&gt;&lt;/b&gt;" style="text;html=1;align=center;verticalAlign=middle;whiteSpace=wrap;rounded=0;" parent="1" vertex="1">
          <mxGeometry x="300" y="730" width="20" height="20" as="geometry" />
        </mxCell>
        <mxCell id="b8Y9SWuDgDwBU1Piw9FO-165" value="&lt;b style=&quot;&quot;&gt;&lt;font style=&quot;font-size: 12px;&quot;&gt;3&lt;/font&gt;&lt;/b&gt;" style="text;html=1;align=center;verticalAlign=middle;whiteSpace=wrap;rounded=0;" parent="1" vertex="1">
          <mxGeometry x="300" y="690" width="20" height="20" as="geometry" />
        </mxCell>
        <mxCell id="b8Y9SWuDgDwBU1Piw9FO-166" value="&lt;b style=&quot;&quot;&gt;&lt;font style=&quot;font-size: 12px;&quot;&gt;4&lt;/font&gt;&lt;/b&gt;" style="text;html=1;align=center;verticalAlign=middle;whiteSpace=wrap;rounded=0;" parent="1" vertex="1">
          <mxGeometry x="300" y="650" width="20" height="20" as="geometry" />
        </mxCell>
        <mxCell id="b8Y9SWuDgDwBU1Piw9FO-170" value="" style="rounded=0;whiteSpace=wrap;html=1;fillColor=#fff2cc;strokeColor=#330000;" parent="1" vertex="1">
          <mxGeometry x="320" y="720" width="40" height="40" as="geometry" />
        </mxCell>
        <mxCell id="b8Y9SWuDgDwBU1Piw9FO-171" value="" style="rounded=0;whiteSpace=wrap;html=1;fillColor=#fff2cc;strokeColor=#330000;" parent="1" vertex="1">
          <mxGeometry x="320" y="640" width="40" height="40" as="geometry" />
        </mxCell>
        <mxCell id="b8Y9SWuDgDwBU1Piw9FO-172" value="" style="rounded=0;whiteSpace=wrap;html=1;fillColor=#f8cecc;strokeColor=#330000;" parent="1" vertex="1">
          <mxGeometry x="360" y="680" width="40" height="40" as="geometry" />
        </mxCell>
        <mxCell id="b8Y9SWuDgDwBU1Piw9FO-173" value="&lt;b style=&quot;font-size: 18px;&quot;&gt;&lt;font style=&quot;font-size: 18px;&quot;&gt;route table&lt;/font&gt;&lt;/b&gt;" style="text;html=1;align=center;verticalAlign=middle;whiteSpace=wrap;rounded=0;" parent="1" vertex="1">
          <mxGeometry x="880" y="580" width="240" height="40" as="geometry" />
        </mxCell>
        <mxCell id="b8Y9SWuDgDwBU1Piw9FO-174" value="(1, 2)" style="rounded=0;whiteSpace=wrap;html=1;fillColor=none;" parent="1" vertex="1">
          <mxGeometry x="920" y="680" width="100" height="20" as="geometry" />
        </mxCell>
        <mxCell id="b8Y9SWuDgDwBU1Piw9FO-175" value="B" style="rounded=0;whiteSpace=wrap;html=1;fillColor=none;" parent="1" vertex="1">
          <mxGeometry x="1020" y="680" width="100" height="20" as="geometry" />
        </mxCell>
        <mxCell id="b8Y9SWuDgDwBU1Piw9FO-176" value="" style="shape=flexArrow;endArrow=classic;html=1;rounded=0;endWidth=30.444444444444446;endSize=6.276666666666666;width=32.666666666666664;fillColor=#f5f5f5;strokeColor=#666666;" parent="1" edge="1">
          <mxGeometry width="50" height="50" relative="1" as="geometry">
            <mxPoint x="820" y="720" as="sourcePoint" />
            <mxPoint x="900" y="720" as="targetPoint" />
          </mxGeometry>
        </mxCell>
        <mxCell id="b8Y9SWuDgDwBU1Piw9FO-177" value="partition index" style="rounded=0;whiteSpace=wrap;html=1;fillColor=none;" parent="1" vertex="1">
          <mxGeometry x="920" y="640" width="100" height="20" as="geometry" />
        </mxCell>
        <mxCell id="b8Y9SWuDgDwBU1Piw9FO-178" value="subscribers" style="rounded=0;whiteSpace=wrap;html=1;fillColor=none;" parent="1" vertex="1">
          <mxGeometry x="1020" y="640" width="100" height="20" as="geometry" />
        </mxCell>
        <mxCell id="b8Y9SWuDgDwBU1Piw9FO-180" value="(1, 1)" style="rounded=0;whiteSpace=wrap;html=1;fillColor=none;" parent="1" vertex="1">
          <mxGeometry x="920" y="660" width="100" height="20" as="geometry" />
        </mxCell>
        <mxCell id="b8Y9SWuDgDwBU1Piw9FO-181" value="" style="rounded=0;whiteSpace=wrap;html=1;fillColor=none;" parent="1" vertex="1">
          <mxGeometry x="1020" y="660" width="100" height="20" as="geometry" />
        </mxCell>
        <mxCell id="b8Y9SWuDgDwBU1Piw9FO-182" value="(1, 3)" style="rounded=0;whiteSpace=wrap;html=1;fillColor=none;" parent="1" vertex="1">
          <mxGeometry x="920" y="700" width="100" height="20" as="geometry" />
        </mxCell>
        <mxCell id="b8Y9SWuDgDwBU1Piw9FO-183" value="B" style="rounded=0;whiteSpace=wrap;html=1;fillColor=none;" parent="1" vertex="1">
          <mxGeometry x="1020" y="700" width="100" height="20" as="geometry" />
        </mxCell>
        <mxCell id="b8Y9SWuDgDwBU1Piw9FO-184" value="(1, 4)" style="rounded=0;whiteSpace=wrap;html=1;fillColor=none;" parent="1" vertex="1">
          <mxGeometry x="920" y="720" width="100" height="20" as="geometry" />
        </mxCell>
        <mxCell id="b8Y9SWuDgDwBU1Piw9FO-185" value="B" style="rounded=0;whiteSpace=wrap;html=1;fillColor=none;" parent="1" vertex="1">
          <mxGeometry x="1020" y="720" width="100" height="20" as="geometry" />
        </mxCell>
        <mxCell id="b8Y9SWuDgDwBU1Piw9FO-186" value="(2, 1)" style="rounded=0;whiteSpace=wrap;html=1;fillColor=none;" parent="1" vertex="1">
          <mxGeometry x="920" y="740" width="100" height="20" as="geometry" />
        </mxCell>
        <mxCell id="b8Y9SWuDgDwBU1Piw9FO-187" value="A, B" style="rounded=0;whiteSpace=wrap;html=1;fillColor=none;" parent="1" vertex="1">
          <mxGeometry x="1020" y="740" width="100" height="20" as="geometry" />
        </mxCell>
        <mxCell id="b8Y9SWuDgDwBU1Piw9FO-188" value="(2, 2)" style="rounded=0;whiteSpace=wrap;html=1;fillColor=none;" parent="1" vertex="1">
          <mxGeometry x="920" y="760" width="100" height="20" as="geometry" />
        </mxCell>
        <mxCell id="b8Y9SWuDgDwBU1Piw9FO-189" value="A, B" style="rounded=0;whiteSpace=wrap;html=1;fillColor=none;" parent="1" vertex="1">
          <mxGeometry x="1020" y="760" width="100" height="20" as="geometry" />
        </mxCell>
        <mxCell id="b8Y9SWuDgDwBU1Piw9FO-190" value="(2, 3)" style="rounded=0;whiteSpace=wrap;html=1;fillColor=none;" parent="1" vertex="1">
          <mxGeometry x="920" y="780" width="100" height="20" as="geometry" />
        </mxCell>
        <mxCell id="b8Y9SWuDgDwBU1Piw9FO-191" value="A, B" style="rounded=0;whiteSpace=wrap;html=1;fillColor=none;" parent="1" vertex="1">
          <mxGeometry x="1020" y="780" width="100" height="20" as="geometry" />
        </mxCell>
        <mxCell id="b8Y9SWuDgDwBU1Piw9FO-192" value="" style="ellipse;whiteSpace=wrap;html=1;aspect=fixed;fillColor=#FF0000;strokeColor=none;" parent="1" vertex="1">
          <mxGeometry x="140" y="725" width="10" height="10" as="geometry" />
        </mxCell>
        <mxCell id="b8Y9SWuDgDwBU1Piw9FO-193" value="" style="ellipse;whiteSpace=wrap;html=1;aspect=fixed;fillColor=#FF0000;strokeColor=none;" parent="1" vertex="1">
          <mxGeometry x="160" y="745" width="10" height="10" as="geometry" />
        </mxCell>
        <mxCell id="b8Y9SWuDgDwBU1Piw9FO-195" value="" style="ellipse;whiteSpace=wrap;html=1;aspect=fixed;fillColor=#FF0000;strokeColor=none;" parent="1" vertex="1">
          <mxGeometry x="195" y="740" width="10" height="10" as="geometry" />
        </mxCell>
        <mxCell id="b8Y9SWuDgDwBU1Piw9FO-198" value="" style="ellipse;whiteSpace=wrap;html=1;aspect=fixed;fillColor=#FF0000;strokeColor=none;" parent="1" vertex="1">
          <mxGeometry x="370" y="700" width="10" height="10" as="geometry" />
        </mxCell>
        <mxCell id="b8Y9SWuDgDwBU1Piw9FO-199" value="" style="ellipse;whiteSpace=wrap;html=1;aspect=fixed;fillColor=#FF0000;strokeColor=none;" parent="1" vertex="1">
          <mxGeometry x="415" y="685" width="10" height="10" as="geometry" />
        </mxCell>
        <mxCell id="b8Y9SWuDgDwBU1Piw9FO-200" value="" style="ellipse;whiteSpace=wrap;html=1;aspect=fixed;fillColor=#FF0000;strokeColor=none;" parent="1" vertex="1">
          <mxGeometry x="425" y="725" width="10" height="10" as="geometry" />
        </mxCell>
        <mxCell id="b8Y9SWuDgDwBU1Piw9FO-201" value="" style="ellipse;whiteSpace=wrap;html=1;aspect=fixed;fillColor=#FF0000;strokeColor=none;" parent="1" vertex="1">
          <mxGeometry x="405" y="750" width="10" height="10" as="geometry" />
        </mxCell>
      </root>
    </mxGraphModel>
  </diagram>
</mxfile>
